# xmcd
#
# Track frame offsets: 
#        150
#        12488
#        24625
#        38484
#        47904
#        60871
#        70728
#        81989
#        93056
#        104456
#        116823
#        128619
#        142826
#        155691
#        172124
#        185916
#
# Disc length: 2747 seconds
#
# Revision: 0
# Processed by: cddbd v1.5.2PL0 Copyright (c) Steve Scherf et al.
# Submitted via: ExactAudioCopyFreeDBPlugin 1.0
#
DISCID=d40ab910
DTITLE=Elvis Presley - The RCA Albums Collection
DYEAR=1900
DGENRE=
TTITLE0=Fool
TTITLE1=Where Do I Go from Here
TTITLE2=Love Me, Love The Life I Lead
TTITLE3=It's Still Here
TTITLE4=It's Impossible
TTITLE5=(That's What You Get) For Lovin' Me
TTITLE6=Padre
TTITLE7=I'll Take You Home Again Kathleen
TTITLE8=I Will Be True
TTITLE9=Don't Think Twice, It's All Right
TTITLE10=Separate Ways
TTITLE11=For the Good Times
TTITLE12=Burning Love
TTITLE13=Always On My Mind
TTITLE14=It's A Matter of Time
TTITLE15=American Trilogy [Live]
EXTD=
EXTT0=
EXTT1=
EXTT2=
EXTT3=
EXTT4=
EXTT5=
EXTT6=
EXTT7=
EXTT8=
EXTT9=
EXTT10=
EXTT11=
EXTT12=
EXTT13=
EXTT14=
EXTT15=
PLAYORDER=
